<?xml version="1.0" ?><svg id="Layer_1" style="enable-background:new 0 0 52 52;" version="1.1" viewBox="0 0 52 52" xml:space="preserve" xmlns="http://www.w3.org/2000/svg" xmlns:xlink="http://www.w3.org/1999/xlink"><style type="text/css">
	.st0{fill:#231F20;}
</style><g><g><path class="st0" d="M28.3617077,16.86133c1.4242287,1.3890991-0.5310364,2.6858044-1.2388,3.7137794    c-0.597847,0.86833-0.8750038,2.0416012-2.4321136,0.9825211c-0.527216-0.3585892-1.2409954-1.5151367-1.390686-1.971405    c-0.502243-1.5308876-0.3569012-3.5302296,1.2325649-4.2246904c1.6165981-0.7063169,2.5549412,0.1124458,3.5368519,1.3368082    c0.9058552,1.12953,2.4887981-0.4714947,1.5909901-1.5909891c-0.7833118-0.9767265-1.7046261-2.2899179-3.0587349-2.396574    c-1.3222466-0.104146-3.2217121,0.4172325-4.2591286,1.2637415c-2.1458282,1.750948-1.8556194,5.7921772-0.3759613,7.8454628    c1.5782185,2.1900558,4.3647232,3.6112309,6.3491154,1.0482121c1.7165699-2.2171021,4.296957-5.0034046,1.6368923-7.5978565    C28.9154205,14.258647,27.3228817,15.8481274,28.3617077,16.86133L28.3617077,16.86133z"/></g><g><path class="st0" d="M20.9627171,27.7157593c2.7037678-0.0200214,10.3827438-1.3588982,11.7013187,1.871067    c0.2703323,0.6621933,0.3882904,3.2352028,0.2643623,4.0642815c-0.3206062,2.1448593-1.1919804,1.6392822-3.2599087,1.6280098    c-2.9405499-0.0160332-6.1038303-0.3469238-9.033432-0.0492516c-0.7727718-0.2028427-1.4654274-0.0703583-2.0779667,0.3974457    c-0.0194187-0.7916603-0.0388393-1.5833206-0.0582581-2.3749809c-0.0360966-1.5928078-0.7392654-5.3204803,2.2688599-5.2587624    c1.4484367,0.0297165,1.4482708-2.2202854,0-2.25c-1.78936-0.0367126-3.4346313,0.2822819-4.164175,2.0993652    c-0.8416529,2.0963135-0.7504425,5.8109131-0.2746563,7.9646416c0.3139629,1.4212074,0.9725666,1.5825768,2.3704605,1.6617393    c3.8466644,0.2178268,7.760437,0.0423088,11.6144142,0.0633202c1.5270443,0.0083237,3.6917953,0.5975342,4.6111908-0.8713684    c0.9853592-1.574295,0.3242226-5.9233475-0.0912628-7.6725807c-0.4296494-1.8088684-1.3786049-3.0522861-3.2339344-3.4595337    c-3.3004589-0.724453-7.2734547-0.0882988-10.6370125-0.0633926    C19.5154896,25.4764767,19.512167,27.7265015,20.9627171,27.7157593L20.9627171,27.7157593z"/></g><g><path class="st0" d="M47.5177383,18.9554958c0.8419876,3.0099297,1.0655403,6.0074215,1.0925255,9.1096535    c0.035511,4.0824184-0.8817215,6.3556042-3.215374,9.6631908c-3.5219727,4.991848-7.5452652,8.7990074-13.7745094,10.0458908    c-6.0781307,1.2166328-13.64995,1.1473198-18.2646179-3.2734146c-4.3913593-4.20681-7.7673402-7.5959511-9.4398804-13.6558304    C0.7834848,19.4958153,7.3530493,5.7777886,19.90522,4.2958694c5.2863522-0.6241107,12.7775726-1.724606,17.5101204,1.1157784    c5.1161385,3.070612,8.9543648,8.281559,9.9886475,14.0820866c0.2537575,1.42313,2.4225082,0.8200817,2.1696281-0.5981388    c-1.1706161-6.5651131-5.6332054-12.6829815-11.6637115-15.8089228    c-5.5692253-2.8868351-14.1572399-1.8856677-20.0690002-0.7862926C4.8041544,4.7247477-1.4736835,19.6644135,1.7462548,31.4431248    c1.9122571,6.995142,6.0085196,11.4791279,11.535244,16.0923519c4.7610331,3.9740906,12.9919844,3.6474762,18.8067894,2.5220985    c3.5416069-0.6854324,7.424366-2.6252441,10.2245827-4.8644829c2.3668175-1.892662,3.8159981-4.6211281,5.634552-7.0022659    c4.2051277-5.5060081,3.536541-13.4110165,1.7399445-19.8334694C49.297863,16.9649582,47.1263809,17.556469,47.5177383,18.9554958    L47.5177383,18.9554958z"/></g><g><path class="st0" d="M24.3046093,3.2097068c0.2976475,1.0648632-0.0332336,2.1913853,0.3009052,3.2720227    c0.4264202,1.3790879,2.5990677,0.7907104,2.1696281-0.5981393c-0.3254108-1.0524073,0.0005608-2.1934977-0.3009052-3.2720225    C26.0850105,1.2190769,23.913538,1.8106114,24.3046093,3.2097068L24.3046093,3.2097068z"/></g><g><path class="st0" d="M2.4428194,26.8022003c1.0833333,0,2.1666667,0,3.2499998,0c1.4477677,0,1.4501657-2.25,0-2.25    c-1.083333,0-2.1666665,0-3.2499998,0C0.9950517,24.5522003,0.9926537,26.8022003,2.4428194,26.8022003L2.4428194,26.8022003z"/></g><g><path class="st0" d="M24.6511536,46.0105324c0,0.9166679,0,1.8333321,0,2.75c0,1.4477692,2.25,1.4501648,2.25,0    c0-0.9166679,0-1.8333321,0-2.75C26.9011536,44.562767,24.6511536,44.5603676,24.6511536,46.0105324L24.6511536,46.0105324z"/></g><g><path class="st0" d="M49.5255928,24.4530582c-1.0274696,0.0364723-2.0549393,0.0729446-3.0824089,0.1094189    c-1.4437332,0.0512486-1.4505615,2.3014908,0,2.25c1.0274696-0.0364742,2.0549393-0.0729465,3.0824089-0.1094189    C50.969326,26.6518078,50.9761505,24.4015656,49.5255928,24.4530582L49.5255928,24.4530582z"/></g></g></svg>